<svg xmlns="http://www.w3.org/2000/svg"><symbol id="badge-facebook" viewBox="0 0 720 720"><path d="M360 116.3c-134.6 0-243.7 109.1-243.7 243.7S225.4 603.7 360 603.7 603.7 494.6 603.7 360 494.6 116.3 360 116.3zm24.2 201.9h54.4l-6.5 55.7h-48.2V515h-57.5V373.8h-47.2v-56.6h47.2c0-85.8 4.5-121 114.5-110.4v50.4c-65.5-5.6-56.7 11.4-56.7 61z"/></symbol><symbol id="badge-twitter" viewBox="0 0 720 720"><path d="M360 116.3c-134.6 0-243.7 109.1-243.7 243.7S225.4 603.7 360 603.7 603.7 494.6 603.7 360 494.6 116.3 360 116.3zm91.6 195.6c-2.2 1.7-3.4 4.4-3.3 7.2-1.4 50.5-22.6 89.9-66.6 115.7-21.8 12.8-45.8 16.9-70.9 15.5-20.8-1.1-41-7.3-58.9-18.1-.6-.3-1.1-.7-2.7-1.8 25 1.9 46.7-4 66.8-19.1-10.3-.8-18.9-3.6-26.5-9.3-7.5-5.6-13.1-13.5-16.1-22.4h19.1c-24.8-11.9-36.4-26.8-35-45.2l18.8 5.2.6-.8c-19.7-16.7-24.4-36.6-13.5-60.9 25 29.2 56 45.1 94 47.9.1-1.2.1-2.4 0-3.6-2.7-19.4 6.2-37.7 23.1-46.9 16.9-9.4 37.9-7 52.3 6 2.5 2.2 4.6 2.8 7.6 1.8 7.9-2.9 15.7-5.7 23.8-8.6-3.2 9.6-9.7 17-18.1 23l.5 1 23.3-6.3.8.8c-6.2 6.2-12.4 12.8-19.1 18.9z"/></symbol><symbol id="badge-insta" viewBox="0 0 720 720"><path d="M398.7 360c0 21.4-17.3 38.7-38.7 38.7s-38.7-17.3-38.7-38.7 17.3-38.7 38.7-38.7c21.4 0 38.7 17.3 38.7 38.7zm48.5-41.2v82.5c-.1 25.3-20.6 45.8-45.9 45.9h-82.5c-25.3-.1-45.8-20.6-45.9-45.9v-82.5c.1-25.3 20.6-45.8 45.9-45.9h82.5c25.3 0 45.8 20.5 45.9 45.9zM416.5 360c0-31.2-25.3-56.5-56.5-56.5s-56.5 25.3-56.5 56.5 25.3 56.5 56.5 56.5c31.2-.1 56.4-25.3 56.5-56.5zm7.9-55.9c0-4.7-3.8-8.6-8.6-8.6s-8.6 3.8-8.6 8.6 3.8 8.6 8.6 8.6 8.6-3.8 8.6-8.6zM603.7 360c0 134.6-109.1 243.7-243.7 243.7S116.3 494.6 116.3 360 225.4 116.3 360 116.3 603.7 225.4 603.7 360zm-138.8-41.2c0-35.1-28.5-63.6-63.7-63.7h-82.5c-35.1 0-63.6 28.5-63.6 63.7v82.5c0 35.1 28.5 63.6 63.6 63.6h82.5c35.1 0 63.6-28.5 63.6-63.7v-82.4z"/></symbol></svg>